<svg xmlns="http://www.w3.org/2000/svg" xmlns:xlink="http://www.w3.org/1999/xlink" width="148px" height="auto" viewBox="0 0 351.066 89.857">
  <defs>
    <clipPath>
      <rect data-name="Rectangle 662" width="351.066" height="89.857" fill="none"></rect>
    </clipPath>
  </defs>
  <g data-name="Group 223" clip-path="url(#clip-path)">
    <path data-name="Path 627" d="M3.906,81.212h0c-1.483-6.976,14.485-17,41.793-27.758h9.6C27.695,64.557,11.508,75.01,12.975,81.908c.957,4.505,9.459,7.121,23.556,7.948-19.494-.3-31.449-3.118-32.625-8.645M48.012,52.553h0c7.05-2.725,14.812-5.489,23.188-8.261v3.149q-7.185,2.569-13.639,5.112ZM72.1,44h0q4.616-1.524,9.471-3.038l2.075,2.211Q77.675,45.137,72.1,47.119ZM82.517,40.66h0q7.1-2.21,14.66-4.4v2.61q-6.487,1.984-12.6,3.991ZM98.078,36h0q5.973-1.728,12.208-3.43l1.79,1.91q-7.189,2.034-14,4.112Zm13.184-4.108c17.89-4.8,37.3-9.45,57.67-13.725C263.188-1.609,342.287-5.833,345,8.428c1.019,5.379-8.963,12.621-26.878,20.6,12.722-6.316,19.59-12,18.757-16.392C334.3-.912,257.992,1.53,168.453,20.322c-19.643,4.121-38.292,8.685-55.4,13.447Z" transform="translate(-1.125 0)" fill="#ce0e2d"></path>
    <path data-name="Path 628" d="M122.769,41.731l-6.223.006V63.253S96.306,41.66,96.3,41.657h-5.75V68.445h6.239V47.127s19.754,21.352,19.751,21.352l6.224.006Z" transform="translate(-26.717 -12.291)" fill="#fff"></path>
    <path data-name="Path 629" d="M31.284,41.64h-5.92V52.433H5.923V41.64H0V68.428H5.923V55.111H25.364V68.428h5.92Z" transform="translate(0 -12.286)" fill="#fff"></path>
    <path data-name="Path 630" d="M266.87,44.193h8.713c6.347,0,8.973,2.142,8.973,5.09,0,3.979-3.6,5.892-9.339,6.087l-1.953.037v2.449h1.891c9.583,0,15.748-4.1,15.748-8.61,0-5.208-8.171-7.756-19.212-7.731H260.95V68.3h5.92Z" transform="translate(-76.993 -12.249)" fill="#fff"></path>
    <path data-name="Path 631" d="M329.891,41.649H308.833V68.438h23.68V65.759h-17.76v-10.1h14.831V52.979H314.753V44.331h15.137Z" transform="translate(-91.12 -12.289)" fill="#fff"></path>
    <path data-name="Path 632" d="M469.7,68.3V56.7l14.4-15.119-5.248-.458-11.23,12.707L457.313,41.126l-6.409.765L463.781,56.7V68.3Z" transform="translate(-133.038 -12.134)" fill="#fff"></path>
    <path data-name="Path 633" d="M380.6,41.29l-6.223.006V62.815s-20.237-21.6-20.24-21.6h-5.756V68h6.242V46.69s19.754,21.348,19.751,21.348l6.223.006Z" transform="translate(-102.79 -12.161)" fill="#fff"></path>
    <path data-name="Path 634" d="M432.59,41.409l-6.223.006V62.931s-20.24-21.6-20.243-21.6h-5.75V68.123h6.239V46.806s19.754,21.352,19.751,21.352l6.224.006Z" transform="translate(-118.129 -12.196)" fill="#fff"></path>
    <path data-name="Path 635" d="M174.754,41.848l-6.223.006V63.37s-20.237-21.593-20.24-21.593h-5.753V68.562h6.242V47.248S168.531,68.6,168.527,68.6l6.224.006Z" transform="translate(-42.055 -12.326)" fill="#fff"></path>
    <path data-name="Path 636" d="M211.557,68.333v-11.6l14.4-15.119-5.248-.455-11.23,12.7-10.316-12.7-6.407.762,12.877,14.812v11.6Z" transform="translate(-56.873 -12.145)" fill="#fff"></path>
    <path data-name="Path 637" d="M71.824,41.626H50.766V68.414H74.449V65.736H56.687v-10.1H71.517V52.955H56.687V44.308H71.824Z" transform="translate(-14.978 -12.282)" fill="#fff"></path>
    <path data-name="Path 638" d="M485.131,74.529h0c.449,0,1.105.075,1.105-.563,0-.5-.4-.554-.792-.554h-.9v1.117Zm1.486,1.759h-.465l-.9-1.452h-.709v1.452h-.386V73.136h1.38c.833,0,1.118.312,1.118.833,0,.622-.434.852-.994.867Zm.96-1.579h0a2.378,2.378,0,1,0-2.369,2.458,2.355,2.355,0,0,0,2.369-2.458m-5.2,0a2.825,2.825,0,1,1,2.833,2.833,2.827,2.827,0,0,1-2.833-2.833" transform="translate(-142.323 -21.211)" fill="#fff"></path>
  </g>
</svg>